<svg width="136" height="33" viewBox="0 0 136 33" fill="none" xmlns="http://www.w3.org/2000/svg">
<g clip-path="url(#clip0_45_7)">
<path d="M0 18.8513H4.45228V20.6136C4.45228 21.7468 4.63504 22.7902 4.99548 23.7487C5.35593 24.7072 5.8636 25.5359 6.50834 26.2298C7.15309 26.9237 7.91967 27.4679 8.80809 27.8573C9.69652 28.2466 10.6712 28.4413 11.7221 28.4413C12.773 28.4413 13.7579 28.2417 14.6565 27.8473C15.555 27.4529 16.3318 26.8987 16.9867 26.1948C17.6416 25.4909 18.1543 24.6523 18.5249 23.6838C18.8955 22.7153 19.0783 21.6619 19.0783 20.5187V2.07254H23.5306V20.5187C23.5306 21.7268 23.4036 22.8651 23.1549 23.9284C22.9061 24.9917 22.5406 25.9652 22.0634 26.8538C21.5862 27.7424 21.0074 28.5362 20.3221 29.2351C19.6367 29.934 18.86 30.5281 17.9868 31.0123C17.1136 31.4966 16.1592 31.866 15.1134 32.1206C14.0726 32.3752 12.9558 32.505 11.7678 32.505C10.5799 32.505 9.47314 32.3752 8.42734 32.1206C7.38154 31.866 6.42204 31.4916 5.55392 31.0123C4.6858 30.5281 3.90399 29.939 3.21863 29.2351C2.53328 28.5312 1.94946 27.7374 1.47225 26.8538C0.995035 25.9702 0.629512 24.9917 0.380753 23.9284C0.131994 22.8651 0.00507671 21.7318 0.00507671 20.5187V18.8513H0Z" fill="#000920"/>
<path d="M27.6072 13.325C28.0997 12.2616 28.8104 11.353 29.7344 10.6042C30.6583 9.85538 31.7752 9.27629 33.0901 8.87691C34.4049 8.47255 35.8772 8.27286 37.5068 8.27286C39.238 8.27286 40.7864 8.5025 42.1621 8.95679C43.5329 9.41108 44.6954 10.0651 45.6498 10.9237C46.6043 11.7824 47.3353 12.8208 47.843 14.0538C48.3507 15.2869 48.6045 16.6847 48.6045 18.2473V31.876H44.3096V25.5808H44.3401C44.1573 26.2947 43.9035 26.9637 43.5887 27.5827C43.2739 28.2017 42.8932 28.7658 42.4566 29.28C42.02 29.7942 41.5225 30.2485 40.9691 30.6529C40.4158 31.0523 39.8116 31.3867 39.1567 31.6613C38.5018 31.9359 37.8013 32.1456 37.055 32.2853C36.3087 32.4251 35.5167 32.5 34.6892 32.5C33.4099 32.5 32.2473 32.3353 31.2015 32.0058C30.1557 31.6763 29.2622 31.207 28.5159 30.598C27.7697 29.9889 27.196 29.2601 26.7899 28.4114C26.3837 27.5627 26.1807 26.6142 26.1807 25.5708C26.1807 24.5275 26.3888 23.5789 26.8102 22.7353C27.2315 21.8966 27.8357 21.1827 28.6226 20.5936C29.4095 20.0045 30.3639 19.5552 31.4909 19.2457C32.6129 18.9312 33.882 18.7764 35.2934 18.7764H44.472V22.3209H35.2527C34.4608 22.3209 33.7653 22.3858 33.1662 22.5206C32.5672 22.6504 32.0646 22.8501 31.6584 23.1147C31.2523 23.3793 30.9477 23.7037 30.7395 24.0931C30.5314 24.4825 30.4248 24.9318 30.4248 25.436C30.4248 25.9752 30.5416 26.4594 30.7802 26.8838C31.0188 27.3081 31.364 27.6626 31.826 27.9471C32.2829 28.2317 32.8515 28.4463 33.5267 28.5961C34.2019 28.7459 34.9786 28.8208 35.8518 28.8208C36.6793 28.8208 37.4611 28.7559 38.1972 28.6211C38.9334 28.4913 39.6187 28.3016 40.2482 28.0569C40.8777 27.8123 41.4413 27.5178 41.9439 27.1733C42.4464 26.8239 42.8729 26.4345 43.2283 26.0002C43.5836 25.5658 43.8527 25.0916 44.0405 24.5774C44.2284 24.0632 44.3198 23.519 44.3198 22.9499V18.2423C44.3198 17.2988 44.1573 16.4451 43.8375 15.6913C43.5176 14.9325 43.0556 14.2885 42.4668 13.7543C41.8728 13.2201 41.1519 12.8108 40.3041 12.5262C39.4563 12.2417 38.5018 12.0969 37.4459 12.0969C36.3899 12.0969 35.4304 12.2117 34.6435 12.4413C33.8566 12.671 33.2068 12.9955 32.6941 13.4098C32.1813 13.8242 31.8006 14.3334 31.5518 14.9275C31.3031 15.5215 31.1761 16.1805 31.1761 16.9044H26.8863C26.8863 15.5864 27.1351 14.3933 27.6275 13.33L27.6072 13.325Z" fill="#000920"/>
<path d="M52.681 13.325C53.1734 12.2616 53.8842 11.353 54.8081 10.6042C55.7321 9.85538 56.849 9.27629 58.1638 8.87691C59.4787 8.47255 60.951 8.27286 62.5806 8.27286C64.3117 8.27286 65.8601 8.5025 67.2359 8.95679C68.6066 9.41108 69.7692 10.0651 70.7236 10.9237C71.678 11.7824 72.4091 12.8208 72.9168 14.0538C73.4244 15.2869 73.6783 16.6847 73.6783 18.2473V31.876H69.3885V25.5808H69.4189C69.2362 26.2947 68.9823 26.9637 68.6676 27.5827C68.3477 28.2017 67.9721 28.7658 67.5355 29.28C67.0989 29.7942 66.6013 30.2485 66.048 30.6529C65.4946 31.0523 64.8905 31.3867 64.2356 31.6613C63.5807 31.9359 62.8801 32.1456 62.1338 32.2853C61.3876 32.4301 60.5956 32.5 59.7681 32.5C58.4888 32.5 57.3262 32.3353 56.2804 32.0058C55.2346 31.6763 54.3411 31.207 53.5948 30.598C52.8485 29.9889 52.2749 29.2601 51.8687 28.4114C51.4626 27.5577 51.2595 26.6142 51.2595 25.5708C51.2595 24.5275 51.4677 23.5789 51.889 22.7353C52.3104 21.8966 52.9145 21.1827 53.7014 20.5936C54.4883 20.0045 55.4427 19.5552 56.5698 19.2457C57.6917 18.9312 58.9609 18.7764 60.3722 18.7764H69.5509V22.3209H60.3316C59.5396 22.3209 58.8441 22.3858 58.2451 22.5206C57.646 22.6554 57.1434 22.8501 56.7373 23.1147C56.3312 23.3793 56.0215 23.7037 55.8133 24.0931C55.6052 24.4825 55.4986 24.9318 55.4986 25.436C55.4986 25.9752 55.6153 26.4594 55.8539 26.8838C56.0925 27.3081 56.4378 27.6626 56.8997 27.9471C57.3567 28.2317 57.9252 28.4463 58.6004 28.5961C59.2756 28.7459 60.0524 28.8208 60.9256 28.8208C61.7531 28.8208 62.5349 28.7559 63.271 28.6211C64.0071 28.4863 64.6925 28.3016 65.322 28.0569C65.9515 27.8123 66.515 27.5178 67.0176 27.1733C67.5202 26.8239 67.9467 26.4345 68.302 26.0002C68.6574 25.5658 68.9265 25.0916 69.1143 24.5774C69.3021 24.0632 69.3935 23.519 69.3935 22.9499V18.2423C69.3935 17.2988 69.2311 16.4451 68.9112 15.6913C68.5914 14.9325 68.1345 14.2885 67.5405 13.7543C66.9466 13.2201 66.2257 12.8108 65.3779 12.5262C64.53 12.2417 63.5756 12.0969 62.5146 12.0969C61.4536 12.0969 60.4991 12.2117 59.7122 12.4413C58.9254 12.671 58.2755 12.9955 57.7628 13.4098C57.25 13.8242 56.8693 14.3334 56.6205 14.9275C56.3718 15.5215 56.2449 16.1805 56.2449 16.9044H51.955C51.955 15.5864 52.2038 14.3933 52.6962 13.33L52.681 13.325Z" fill="#000920"/>
<path d="M80.009 29.8242L79.6486 28.3215H96.4576V31.876H76.4807V28.0819L92.0053 11.0835L92.3556 12.4463H76.8919V8.89188H95.6301V12.6859L80.009 29.8192V29.8242Z" fill="#000920"/>
<path d="M103.661 8.89688H99.3716V31.876H103.661V8.89688Z" fill="#000920"/>
<path d="M111.327 23.8835C111.667 24.8969 112.15 25.7605 112.784 26.4744C113.419 27.1883 114.18 27.7324 115.084 28.1168C115.982 28.4963 116.998 28.6909 118.12 28.6909C118.891 28.6909 119.602 28.5961 120.252 28.4114C120.902 28.2267 121.491 27.9421 122.019 27.5727C122.547 27.2033 123.014 26.739 123.42 26.1849C123.826 25.6307 124.171 24.9917 124.455 24.2629H128.745C128.441 25.5509 127.969 26.6991 127.324 27.7225C126.679 28.7459 125.897 29.6095 124.978 30.3184C124.054 31.0273 123.009 31.5665 121.831 31.9459C120.653 32.3203 119.384 32.51 118.023 32.51C116.297 32.51 114.734 32.2204 113.322 31.6363C111.911 31.0523 110.703 30.2285 109.697 29.1652C108.692 28.1019 107.91 26.8239 107.362 25.3312C106.809 23.8385 106.535 22.1811 106.535 20.359C106.535 18.5368 106.809 16.9094 107.352 15.4267C107.895 13.944 108.667 12.671 109.662 11.6126C110.657 10.5543 111.855 9.73557 113.251 9.15148C114.647 8.57238 116.191 8.28284 117.886 8.28284C119.582 8.28284 121.074 8.56739 122.42 9.13151C123.77 9.69563 124.923 10.5044 125.872 11.5427C126.826 12.5861 127.562 13.8441 128.075 15.3268C128.593 16.8045 128.847 18.4619 128.847 20.2991C128.847 20.5636 128.842 20.8232 128.832 21.0878C128.821 21.3524 128.801 21.632 128.771 21.9365H109.906V18.2872H126.745L124.476 21.9016C124.496 21.6669 124.511 21.4223 124.521 21.1727C124.532 20.9231 124.537 20.6735 124.537 20.4239C124.537 19.0909 124.389 17.9078 124.095 16.8744C123.801 15.841 123.374 14.9724 122.806 14.2635C122.242 13.5546 121.546 13.0154 120.724 12.646C119.902 12.2766 118.957 12.0919 117.891 12.0919C116.825 12.0919 115.81 12.2816 114.942 12.666C114.069 13.0504 113.327 13.5995 112.718 14.3134C112.109 15.0273 111.637 15.8959 111.307 16.9193C110.977 17.9427 110.814 19.086 110.814 20.359V20.4738C110.814 21.7368 110.982 22.875 111.322 23.8934L111.327 23.8835Z" fill="#000920"/>
<path d="M136 31.876H131.71V1.02917H136V31.876Z" fill="#000920"/>
<path d="M101.519 6.61045C103.235 6.61045 104.626 5.24258 104.626 3.55523C104.626 1.86787 103.235 0.5 101.519 0.5C99.8031 0.5 98.4121 1.86787 98.4121 3.55523C98.4121 5.24258 99.8031 6.61045 101.519 6.61045Z" fill="#000920"/>
<path d="M6.39666 4.27909L8.37657 2.07254L8.65579 5.00296L11.5749 4.35897L10.0519 6.89001L12.7984 8.0532L10.0519 9.22137L11.5749 11.7524L8.65579 11.1084L8.37657 14.0388L6.39666 11.8323L4.42181 14.0388L4.1426 11.1084L1.22349 11.7524L2.7465 9.22137L0 8.0532L2.7465 6.89001L1.22349 4.35897L4.1426 5.00296L4.42181 2.07254L6.39666 4.27909Z" fill="#1306B2"/>
</g>
<defs>
<clipPath id="clip0_45_7">
<rect width="136" height="32" fill="white" transform="translate(0 0.5)"/>
</clipPath>
</defs>
</svg>
